<?xml version="1.0" standalone="no"?>
<!DOCTYPE svg PUBLIC "-//W3C//DTD SVG 20010904//EN"
 "http://www.w3.org/TR/2001/REC-SVG-20010904/DTD/svg10.dtd">
<svg version="1.0" xmlns="http://www.w3.org/2000/svg"
 width="596.000000pt" height="232.000000pt" viewBox="0 0 596.000000 232.000000"
 preserveAspectRatio="xMidYMid meet">

<g transform="translate(0.000000,232.000000) scale(0.100000,-0.100000)"
fill="#000000" stroke="none">
<path d="M57 2203 c-16 -16 -6 -53 16 -58 12 -3 1325 -4 2917 -3 l2895 3 0 30
0 30 -2911 3 c-1601 1 -2914 -1 -2917 -5z"/>
<path d="M5130 2013 c-49 -18 -73 -66 -59 -117 12 -43 42 -66 86 -66 23 0 33
-5 33 -16 0 -26 -19 -53 -50 -69 -58 -30 -25 -70 35 -42 42 20 80 70 95 125
29 111 -51 218 -140 185z"/>
<path d="M5450 2009 c-46 -18 -92 -61 -111 -103 -26 -58 -28 -286 -1 -333 9
-17 67 -69 127 -115 l110 -84 0 -140 0 -139 -24 -3 c-41 -6 -51 20 -51 136 l0
104 -37 -7 c-21 -4 -60 -14 -88 -23 l-50 -17 -3 -95 c-4 -111 7 -157 49 -205
43 -49 101 -68 193 -63 63 3 81 8 117 33 76 54 84 83 84 290 0 149 -3 184 -16
202 -9 13 -64 59 -123 104 -60 45 -111 91 -116 105 -6 14 -10 56 -10 93 0 81
14 107 53 97 26 -6 27 -9 27 -72 0 -49 4 -66 16 -71 17 -6 142 24 162 40 23
18 14 108 -15 168 -23 45 -37 59 -82 82 -44 22 -68 27 -120 26 -36 0 -77 -5
-91 -10z"/>
<path d="M2595 1999 c-9 -14 -125 -1050 -119 -1061 3 -4 43 -8 89 -8 96 0 90
-7 100 113 l7 77 38 0 c21 0 41 -4 44 -9 4 -5 9 -38 12 -73 10 -116 3 -108 99
-108 46 0 86 4 89 8 6 11 -109 1045 -118 1061 -9 15 -232 15 -241 0z m134
-454 c6 -83 13 -171 16 -197 l6 -48 -35 0 -35 0 5 48 c6 66 24 312 24 336 0
10 2 17 4 15 3 -2 9 -72 15 -154z"/>
<path d="M3060 1991 c-11 -21 -15 -998 -4 -1039 6 -22 10 -23 93 -20 l86 3 5
244 5 244 74 -234 c41 -129 79 -240 84 -247 7 -9 31 -12 76 -10 l66 3 3 529
c2 417 0 531 -10 538 -7 4 -45 8 -85 8 -61 0 -74 -3 -83 -19 -6 -12 -10 -108
-11 -238 l-1 -218 -73 222 c-40 123 -78 230 -85 238 -8 10 -31 15 -71 15 -47
0 -60 -4 -69 -19z"/>
<path d="M3686 1995 c-8 -21 -8 -1028 0 -1049 9 -23 169 -23 178 0 3 9 6 120
6 247 l1 232 76 -235 c41 -129 80 -241 85 -247 16 -20 134 -17 142 3 3 9 6
246 6 528 0 385 -3 515 -12 524 -10 10 -163 19 -170 10 -1 -2 -5 -109 -8 -238
l-5 -235 -68 210 c-37 116 -73 221 -80 235 -11 22 -20 25 -79 28 -53 2 -67 0
-72 -13z"/>
<path d="M4315 1998 c-3 -7 -4 -249 -3 -538 l3 -525 85 0 85 0 0 535 0 535
-83 3 c-60 2 -84 -1 -87 -10z"/>
<path d="M4635 1998 c-3 -7 -4 -249 -3 -538 l3 -525 179 -3 c137 -2 181 1 188
10 4 7 8 45 8 85 0 89 -6 93 -119 93 l-81 0 0 150 0 149 83 3 82 3 0 90 0 90
-82 3 -83 3 0 104 0 105 88 0 c55 0 92 4 100 12 7 7 12 41 12 83 0 42 -5 76
-12 83 -17 17 -357 17 -363 0z"/>
<path d="M227 1994 c-9 -9 -9 -1036 -1 -1058 5 -13 22 -16 85 -16 67 0 80 3
89 19 6 12 10 109 10 245 l0 226 68 0 c97 0 104 7 100 105 l-3 80 -82 3 -83 3
0 104 0 105 83 0 c45 0 88 4 95 9 9 5 12 31 10 92 l-3 84 -181 3 c-99 1 -183
-1 -187 -4z"/>
<path d="M757 1993 c-10 -16 -120 -1042 -114 -1057 5 -13 22 -16 79 -16 40 0
79 4 85 8 7 5 16 44 20 92 l8 85 45 0 45 0 6 -81 c3 -45 9 -86 13 -93 11 -18
165 -15 172 4 6 14 -101 1012 -112 1048 -5 15 -20 17 -124 17 -65 0 -121 -3
-123 -7z m137 -435 c3 -62 9 -148 13 -190 l6 -78 -32 0 c-25 0 -31 4 -31 23 0
68 24 365 30 362 4 -2 10 -55 14 -117z"/>
<path d="M1147 1993 c-4 -3 -7 -41 -7 -84 0 -90 7 -99 84 -99 l46 0 0 -434 c0
-360 2 -436 14 -445 9 -7 42 -11 88 -9 l73 3 3 443 2 442 49 0 c81 0 81 0 81
101 l0 89 -213 0 c-118 0 -217 -3 -220 -7z"/>
<path d="M1999 1686 c-22 -48 -47 -87 -57 -89 -9 -3 -54 -11 -99 -17 -46 -7
-83 -14 -83 -15 0 -2 32 -34 71 -72 l70 -68 -16 -94 c-9 -51 -14 -96 -11 -98
3 -3 43 15 89 39 l84 45 87 -44 c49 -24 90 -43 92 -40 2 2 -4 45 -13 96 l-16
92 68 69 c38 38 66 72 63 75 -3 3 -37 10 -74 16 -118 17 -111 12 -156 104 -24
47 -46 85 -51 85 -5 0 -26 -38 -48 -84z"/>
<path d="M57 803 c-16 -16 -6 -53 16 -58 12 -3 1325 -4 2917 -3 l2895 3 0 30
0 30 -2911 3 c-1601 1 -2914 -1 -2917 -5z"/>
<path d="M2360 560 c-15 -28 4 -60 36 -60 31 0 54 41 34 65 -18 21 -57 19 -70
-5z"/>
<path d="M2233 558 c-5 -7 -20 -65 -33 -128 -30 -146 -35 -160 -60 -160 -24 0
-24 -6 0 104 11 50 20 91 20 93 0 2 -37 3 -81 3 -80 0 -82 -1 -114 -34 -19
-20 -37 -54 -44 -83 -16 -62 -24 -77 -45 -81 -20 -4 -20 12 -1 98 21 97 21
100 -20 100 -28 0 -36 -4 -40 -22 -3 -13 -11 -51 -19 -86 -14 -62 -30 -92 -47
-92 -13 0 -10 46 6 115 21 86 21 87 -22 83 l-38 -3 -17 -75 c-21 -97 -22 -135
-2 -154 20 -21 63 -20 86 1 17 15 19 15 36 0 24 -22 64 -21 92 1 22 18 23 18
46 -5 28 -28 54 -29 85 -4 23 18 24 18 52 -3 l28 -21 39 22 c33 18 41 19 51 7
15 -19 59 -18 87 2 21 15 25 15 41 0 22 -20 70 -21 99 0 20 14 24 14 38 0 20
-21 63 -20 92 0 21 15 25 15 41 0 10 -9 24 -16 31 -16 9 0 8 -5 -4 -19 -26
-28 -18 -82 15 -100 22 -12 31 -13 58 -1 43 17 54 43 85 195 15 72 30 140 33
153 5 20 2 22 -34 22 l-40 0 -18 -86 c-17 -80 -33 -114 -56 -114 -13 0 -11 35
6 105 22 90 21 95 -20 95 -31 0 -35 -3 -44 -37 -6 -21 -13 -58 -17 -82 -7 -42
-33 -81 -54 -81 -12 0 -13 43 -1 90 5 19 12 47 15 63 4 15 13 27 21 27 8 0 15
5 15 10 0 6 -5 10 -11 10 -8 0 -9 13 -5 40 l6 40 -35 0 c-30 0 -37 -5 -45 -27
-6 -16 -15 -36 -20 -46 -6 -10 -8 -22 -5 -27 6 -10 -11 -102 -27 -142 -10 -28
-36 -44 -49 -31 -5 5 1 48 11 98 11 49 20 93 20 98 0 4 -17 7 -37 5 l-37 -3
-21 -87 c-22 -88 -37 -118 -61 -118 -19 0 -18 15 15 168 l28 132 -32 0 c-18 0
-37 -6 -42 -12z m-170 -164 c-3 -65 -25 -119 -51 -122 -19 -3 -22 1 -22 33 0
36 21 97 42 122 19 23 33 8 31 -33z m607 -203 c0 -21 -13 -41 -26 -41 -17 0
-18 22 -2 38 14 14 28 16 28 3z"/>
<path d="M2961 533 c-16 -60 -61 -282 -61 -298 0 -10 11 -15 34 -15 38 0 36
-2 56 90 17 83 30 111 49 108 17 -4 17 -10 5 -110 -5 -41 -3 -62 6 -73 16 -20
69 -19 91 1 16 15 20 15 41 0 65 -46 152 5 173 102 4 18 13 32 21 32 12 0 14
-11 8 -58 -5 -47 -3 -62 11 -75 22 -23 67 -21 97 2 24 20 25 20 41 0 21 -23
64 -25 96 -3 22 16 24 16 33 0 11 -20 66 -21 94 -2 17 12 22 12 39 0 10 -8 36
-14 58 -14 50 0 92 40 109 104 17 66 34 58 33 -15 0 -67 16 -89 63 -89 l25 0
-27 -25 c-28 -26 -35 -72 -14 -93 15 -15 63 -16 89 -2 22 12 49 60 49 88 0 11
12 27 26 37 21 14 31 15 51 6 30 -14 75 -14 106 0 43 19 50 43 42 150 l-7 99
-33 0 c-38 0 -45 -8 -69 -73 -10 -26 -29 -61 -42 -76 -13 -16 -24 -35 -24 -43
0 -15 -19 -38 -31 -38 -6 0 13 99 37 197 6 21 4 22 -76 22 -79 0 -83 -1 -119
-35 -42 -38 -71 -44 -71 -16 0 51 -85 69 -135 30 -31 -25 -64 -90 -65 -129 0
-31 -26 -57 -40 -43 -7 7 1 60 20 147 16 76 30 140 30 143 0 3 -17 4 -37 2
-36 -3 -39 -5 -49 -48 -10 -44 -11 -45 -59 -51 -37 -4 -54 -12 -76 -37 -26
-29 -49 -86 -49 -124 0 -15 -27 -38 -44 -38 -9 0 -7 51 3 90 5 19 12 47 15 63
4 15 13 27 21 27 8 0 15 5 15 10 0 6 -5 10 -11 10 -8 0 -9 13 -5 40 l6 40 -35
0 c-30 0 -37 -5 -45 -27 -6 -16 -15 -36 -20 -46 -6 -10 -8 -22 -5 -27 10 -17
-5 -50 -23 -50 -9 0 -24 15 -32 33 -13 27 -21 32 -56 35 -33 2 -48 -2 -73 -24
-40 -33 -51 -55 -60 -112 -6 -43 -31 -75 -47 -59 -4 4 -1 38 6 77 10 55 11 76
1 96 -11 24 -16 26 -57 21 -37 -4 -44 -2 -40 10 4 8 9 32 12 54 l7 39 -36 0
c-33 0 -37 -3 -46 -37z m345 -158 c-3 -66 -23 -105 -53 -105 -29 0 -11 113 24
152 27 30 32 21 29 -47z m357 21 c-5 -85 -34 -139 -64 -120 -21 13 -2 111 29
147 23 26 37 15 35 -27z m262 34 c4 -6 2 -17 -4 -23 -5 -7 -8 -23 -4 -35 11
-43 -19 -102 -53 -102 -19 0 -19 60 1 107 24 58 45 76 60 53z m220 0 c11 -17
-17 -128 -36 -146 -23 -21 -39 -10 -39 25 0 71 53 157 75 121z m181 -146 c-3
-8 -17 -14 -31 -14 -28 0 -34 15 -9 24 9 4 14 13 10 21 -3 9 2 32 12 52 l17
36 3 -53 c2 -29 1 -59 -2 -66z m-230 -120 c-3 -9 -6 -18 -6 -20 0 -2 -7 -4
-15 -4 -18 0 -19 12 -3 28 17 17 31 15 24 -4z"/>
<path d="M1475 445 c-35 -34 -55 -84 -55 -143 0 -64 23 -87 78 -80 l39 6 -13
-57 c-8 -31 -14 -60 -14 -64 0 -9 60 1 73 12 7 7 77 311 77 337 0 9 -21 13
-79 13 -70 0 -82 -3 -106 -24z m99 -13 c7 -12 -22 -133 -36 -149 -15 -19 -36
-16 -43 7 -17 53 54 181 79 142z"/>
</g>
</svg>
