<?xml version="1.0" standalone="no"?>
<!DOCTYPE svg PUBLIC "-//W3C//DTD SVG 20010904//EN"
 "http://www.w3.org/TR/2001/REC-SVG-20010904/DTD/svg10.dtd">
<svg version="1.0" xmlns="http://www.w3.org/2000/svg"
 width="372.000000pt" height="713.000000pt" viewBox="0 0 372.000000 713.000000"
 preserveAspectRatio="xMidYMid meet">
<metadata>
Created by potrace 1.15, written by Peter Selinger 2001-2017
</metadata>
<g transform="translate(0.000000,713.000000) scale(0.100000,-0.100000)"
fill="#000000" stroke="none">
<path d="M1911 7039 c-19 -11 -43 -30 -53 -42 -33 -38 -88 -125 -88 -140 0 -8
-7 -21 -16 -28 -9 -7 -29 -41 -45 -75 -16 -34 -44 -81 -62 -105 -18 -24 -41
-64 -52 -89 -10 -25 -31 -58 -47 -75 -62 -65 -88 -105 -152 -233 -60 -117
-115 -268 -116 -312 0 -9 -16 -40 -35 -70 -19 -30 -35 -66 -35 -80 0 -14 -7
-36 -15 -50 -9 -15 -14 -53 -15 -95 0 -39 -5 -86 -10 -105 -6 -19 -11 -75 -12
-125 -1 -89 -8 -117 -35 -143 -7 -7 -14 -32 -15 -55 -1 -23 -2 -53 -3 -66 0
-14 -6 -26 -13 -29 -15 -5 -16 -37 0 -61 6 -11 8 -26 3 -37 -4 -11 -9 -35 -10
-54 -2 -19 -3 -38 -4 -42 0 -5 -12 -8 -25 -8 -25 0 -43 -30 -31 -50 4 -6 1
-17 -5 -25 -7 -8 -10 -21 -7 -29 3 -8 1 -16 -5 -18 -5 -2 -11 -17 -12 -33 -4
-46 -34 -114 -96 -215 -22 -36 -40 -73 -40 -83 0 -21 -26 -74 -48 -100 -19
-21 -31 -43 -73 -127 -50 -100 -85 -143 -144 -179 -30 -19 -55 -37 -55 -42 0
-5 -29 -40 -65 -78 -36 -37 -65 -76 -65 -85 0 -28 36 -18 60 17 22 32 63 53
125 64 27 4 25 1 -22 -31 -29 -20 -56 -36 -60 -36 -9 0 -49 -57 -59 -85 -4
-11 -32 -64 -61 -118 -55 -102 -64 -134 -38 -144 19 -7 55 24 55 47 0 10 6 23
14 29 11 9 12 7 9 -12 -3 -14 2 -29 11 -36 11 -9 16 -10 16 -2 0 6 5 11 10 11
6 0 10 -7 10 -15 0 -8 -6 -15 -14 -15 -33 0 -86 -44 -115 -94 -16 -29 -36 -56
-43 -59 -8 -3 -20 -24 -27 -48 -7 -24 -17 -58 -22 -75 -5 -17 -9 -49 -9 -72 0
-35 3 -42 20 -42 23 0 60 53 60 88 0 13 6 22 15 22 8 0 15 5 15 12 0 6 3 8 7
5 3 -4 12 -2 18 3 9 8 14 6 19 -5 9 -25 29 -17 24 10 -5 21 -2 25 20 25 20 0
23 -3 14 -12 -7 -7 -12 -26 -13 -43 0 -16 -3 -24 -6 -17 -8 21 -20 14 -75 -44
-51 -53 -96 -130 -97 -166 -1 -9 -10 -32 -20 -50 -19 -34 -61 -237 -61 -295 0
-40 26 -45 39 -9 5 13 17 26 26 30 15 5 16 2 11 -26 -24 -120 -28 -181 -28
-474 0 -55 30 -164 93 -337 32 -88 39 -121 39 -180 0 -96 -15 -180 -44 -253
-13 -32 -40 -129 -60 -214 -52 -218 -56 -236 -56 -276 0 -55 39 -234 61 -280
10 -22 19 -53 19 -69 0 -21 12 -42 42 -72 l41 -42 -12 -43 c-7 -24 -17 -53
-22 -66 -5 -13 -9 -40 -9 -61 0 -139 165 -248 423 -281 109 -14 212 25 281
106 14 18 26 35 26 38 0 4 9 27 20 50 11 24 25 66 31 92 31 132 31 134 51 134
10 0 30 8 44 17 14 9 44 20 67 24 23 4 80 14 127 24 91 18 158 15 193 -10 12
-8 33 -15 48 -15 33 0 91 -24 108 -44 7 -9 28 -18 47 -22 19 -3 34 -11 34 -18
0 -6 10 -22 23 -36 32 -36 67 -94 67 -114 0 -27 49 -104 80 -126 16 -11 55
-25 87 -31 32 -6 62 -15 68 -20 14 -14 172 -11 195 3 16 10 24 10 40 0 35 -22
71 -14 107 23 19 19 40 35 48 35 8 0 22 12 31 26 14 20 18 53 19 152 2 132 11
169 57 218 112 123 151 539 74 784 -15 47 -36 112 -46 145 -11 33 -20 80 -21
105 -2 54 78 378 124 500 32 85 32 86 32 275 0 162 -3 195 -17 222 -22 39 -22
47 -3 40 8 -4 17 -2 20 3 3 5 8 66 11 136 5 129 -16 324 -38 352 -6 6 -7 12
-2 12 8 0 33 -35 59 -82 21 -39 28 -15 21 75 -6 83 -19 144 -45 202 -48 106
-59 135 -52 139 11 7 48 -34 53 -58 4 -25 34 -44 47 -31 13 13 -4 91 -27 125
-34 50 -71 145 -59 148 40 11 40 11 23 37 -9 13 -16 31 -16 40 0 8 -16 45 -35
82 -19 37 -35 77 -35 89 0 13 -6 29 -13 36 -7 7 -29 40 -50 74 -28 47 -46 65
-79 80 -54 24 -79 52 -74 83 3 19 -14 45 -73 115 -42 50 -83 107 -91 126 -7
19 -28 56 -47 83 -26 37 -32 53 -27 74 6 21 4 25 -9 20 -11 -4 -18 3 -26 24
-8 23 -7 29 5 29 7 0 14 6 14 13 0 22 -16 38 -33 32 -12 -5 -19 3 -28 37 -25
93 -38 172 -30 182 4 6 9 42 10 80 2 53 8 77 27 107 13 21 24 46 24 54 0 9 5
13 10 10 6 -3 13 1 16 9 3 9 10 13 15 10 6 -3 16 -1 23 5 9 8 29 8 64 1 64
-12 91 -28 99 -60 3 -14 14 -41 24 -60 10 -19 27 -69 39 -110 35 -130 63 -188
129 -271 19 -25 26 -27 38 -17 13 10 14 30 9 113 -8 110 1 117 32 27 33 -94
93 -192 121 -199 14 -3 39 -21 55 -40 16 -18 34 -33 40 -33 23 -1 96 -81 96
-105 0 -27 32 -50 57 -41 11 4 13 14 8 38 -9 45 -26 88 -35 88 -12 0 -20 118
-10 145 7 19 6 34 -5 56 -11 21 -13 34 -6 47 10 15 10 16 11 0 0 -20 32 -78
43 -78 4 0 7 -8 7 -18 0 -9 14 -28 30 -42 29 -24 40 -50 20 -50 -5 0 -10 -7
-10 -15 0 -18 30 -20 30 -2 0 6 5 4 11 -5 5 -10 16 -18 24 -18 11 0 14 20 14
90 0 49 5 107 12 129 9 29 9 47 -1 75 -8 24 -8 41 -2 49 5 7 10 51 11 99 2 98
18 164 22 93 2 -22 3 -56 4 -75 1 -19 8 -51 17 -70 13 -29 14 -44 5 -83 -9
-40 -8 -50 5 -64 22 -21 35 -10 52 45 7 26 26 69 40 96 53 99 75 244 57 366
-7 41 -15 91 -18 110 l-6 35 24 -25 c13 -14 25 -38 25 -53 1 -16 9 -36 19 -47
13 -14 13 -19 3 -23 -10 -4 -8 -10 6 -21 23 -19 36 -7 36 34 0 14 7 36 15 48
21 29 25 259 6 316 -12 35 -11 41 8 67 11 15 21 32 21 38 0 5 4 11 10 13 16 5
-11 87 -35 106 -16 13 -43 19 -86 20 -41 1 -71 8 -87 19 -80 57 -146 92 -172
93 -9 0 -21 5 -27 11 -17 17 -314 12 -343 -6 -16 -10 -119 62 -125 88 -3 12
-1 35 4 50 9 24 16 27 56 27 45 0 46 1 43 27 -3 30 17 40 83 42 38 1 63 19 51
37 -4 5 -33 24 -64 42 -46 25 -69 32 -113 32 -30 0 -63 4 -73 9 -34 17 -88 30
-146 35 -33 3 -69 12 -80 19 -42 28 -147 57 -204 57 -31 0 -81 3 -110 7 l-54
6 6 31 c4 17 22 62 41 100 19 38 35 77 35 88 0 10 5 18 11 18 5 0 8 4 5 9 -6
8 5 67 35 194 10 45 10 50 -12 73 -25 26 -71 32 -111 13 -24 -11 -68 -71 -68
-93 0 -8 -6 -19 -14 -26 -8 -6 -27 -43 -41 -81 -15 -38 -31 -71 -36 -75 -5 -3
-9 -15 -9 -26 0 -12 -12 -46 -27 -77 -20 -42 -28 -51 -31 -36 -2 10 1 21 7 23
6 2 11 13 11 23 0 11 11 44 24 72 53 114 76 168 76 176 0 5 -10 11 -23 15 -14
3 -23 13 -23 26 0 21 0 21 17 -1 9 -12 23 -20 31 -17 19 8 39 95 28 124 -18
47 -74 57 -129 23z"/>
</g>
</svg>
