<?xml version="1.0" standalone="no"?>
<!DOCTYPE svg PUBLIC "-//W3C//DTD SVG 20010904//EN"
 "http://www.w3.org/TR/2001/REC-SVG-20010904/DTD/svg10.dtd">
<svg version="1.0" xmlns="http://www.w3.org/2000/svg"
 width="600.000000pt" height="600.000000pt" viewBox="0 0 600.000000 600.000000"
 preserveAspectRatio="xMidYMid meet">
<metadata>
Created by potrace 1.11, written by Peter Selinger 2001-2013
</metadata>
<g transform="translate(0.000000,600.000000) scale(0.100000,-0.100000)"
fill="#000000" stroke="none">
<path d="M2163 5259 c-144 -14 -533 -101 -533 -119 0 -4 -28 -15 -62 -24 -63
-17 -130 -45 -223 -93 -193 -100 -405 -304 -433 -420 -11 -43 -7 -224 5 -231
5 -4 13 -28 16 -54 4 -26 20 -71 36 -100 16 -29 34 -72 41 -95 6 -24 15 -43
20 -43 6 0 10 -6 10 -14 0 -7 7 -19 15 -26 8 -7 12 -16 9 -21 -3 -5 -1 -9 4
-9 8 0 108 -150 105 -160 -1 -5 41 -61 87 -115 14 -16 68 -73 120 -126 136
-136 228 -176 311 -133 62 32 99 174 114 447 4 65 8 117 10 115 9 -9 67 -321
77 -412 15 -137 1 -251 -48 -400 -26 -79 -48 -127 -78 -166 -59 -77 -154 -233
-188 -308 -34 -74 -79 -260 -103 -417 -9 -60 -20 -132 -25 -160 -14 -81 -5
-475 14 -600 34 -219 100 -443 192 -648 35 -79 102 -209 119 -235 7 -10 40 18
76 64 23 30 58 68 78 84 l37 29 79 -51 c44 -28 100 -60 124 -71 61 -27 214
-57 291 -57 66 0 183 21 231 41 l27 10 5 277 c6 261 16 386 30 352 14 -36 20
-121 26 -352 l6 -247 48 30 47 31 0 182 c0 181 14 434 27 491 l6 30 8 -35 c12
-53 32 -466 26 -543 l-4 -69 52 52 52 52 7 321 c6 323 15 448 29 397 12 -45
27 -352 27 -565 l0 -211 50 -49 50 -49 0 195 c0 190 13 428 27 479 15 57 24
-66 30 -392 l5 -336 48 -26 c26 -14 51 -26 55 -26 4 0 4 57 0 128 -6 119 7
419 22 492 6 30 7 32 14 12 16 -43 32 -331 26 -488 l-5 -162 87 -6 c64 -5 101
-3 146 9 68 18 98 36 209 128 l80 65 100 -89 c146 -130 246 -174 304 -133 69
48 131 265 212 749 62 368 70 445 70 657 0 282 -41 483 -135 673 -51 101 -175
281 -262 380 -48 54 -116 161 -137 214 -36 93 -38 209 -5 396 l12 69 19 -74
c40 -159 109 -267 192 -306 69 -32 112 -31 167 5 50 34 65 52 169 208 50 75
114 152 193 233 66 66 115 120 111 120 -4 0 18 24 49 54 31 30 57 62 57 70 0
9 4 16 9 16 14 0 51 64 51 89 0 11 5 21 12 21 6 0 8 3 5 7 -4 3 -2 12 3 18 27
33 10 196 -29 272 -34 69 -211 251 -268 278 -21 10 -59 33 -86 51 -26 19 -53
34 -61 34 -8 0 -16 4 -18 9 -4 12 -103 61 -123 61 -8 0 -15 4 -15 9 0 5 -12
14 -27 19 -16 6 -120 47 -233 92 -283 111 -367 134 -505 134 -107 1 -139 -5
-225 -42 -29 -13 -98 -15 -390 -17 -221 0 -392 -6 -453 -13 -93 -13 -99 -12
-127 8 -57 40 -136 69 -220 79 -92 12 -87 12 -207 0z m1371 -411 c-10 -13 -20
-25 -21 -27 -2 -3 -12 5 -23 17 -19 21 -19 21 3 25 12 2 31 5 41 6 19 1 19 1
0 -21z m-1094 -8 c0 -5 -4 -10 -9 -10 -6 0 -13 5 -16 10 -3 6 1 10 9 10 9 0
16 -4 16 -10z m1041 -40 c5 0 2 -11 -7 -24 -9 -15 -21 -23 -30 -19 -10 4 -12
0 -8 -10 3 -9 -5 -30 -19 -49 -14 -18 -32 -48 -41 -65 -14 -29 -21 -33 -56
-33 -44 0 -48 -4 -24 -27 13 -13 17 -14 24 -3 5 8 17 10 33 6 20 -5 25 -2 23
11 -3 20 21 41 80 71 48 24 138 39 148 24 3 -5 -12 -26 -34 -46 -46 -42 -50
-50 -15 -34 20 9 28 8 44 -6 11 -10 17 -24 14 -32 -5 -13 23 -21 52 -14 9 2
44 7 80 11 6 1 19 -2 30 -7 19 -7 19 -7 3 10 -20 19 -23 42 -8 51 6 4 7 11 4
17 -5 7 2 9 22 4 16 -4 31 -12 32 -17 2 -5 11 -9 21 -9 24 0 58 -26 47 -37 -5
-4 -11 -2 -13 5 -6 15 -53 16 -53 0 0 -9 -3 -9 -12 0 -7 7 -21 12 -32 12 -20
0 -20 -1 2 -18 l23 -18 -75 -38 c-42 -20 -76 -41 -76 -45 0 -5 -12 -11 -26
-14 -24 -4 -26 -2 -20 24 6 31 4 32 -30 23 -15 -4 -20 -11 -17 -25 3 -11 0
-19 -6 -19 -7 0 -10 4 -7 9 3 5 -1 12 -10 15 -9 4 -14 13 -10 21 4 11 -3 19
-21 26 -31 12 -34 9 -35 -28 -1 -29 -1 -30 -19 -12 -11 11 -19 24 -19 29 0 6
-13 1 -30 -11 -25 -19 -29 -27 -24 -56 4 -25 2 -33 -10 -33 -10 0 -13 -6 -10
-15 4 -8 1 -15 -6 -15 -6 0 -8 -4 -5 -10 3 -5 -1 -10 -10 -10 -9 0 -14 4 -11
9 3 5 -1 11 -9 15 -8 3 -15 12 -15 20 0 24 -28 27 -32 3 -2 -17 -11 -23 -38
-25 -21 -2 -38 2 -45 10 -5 8 -18 17 -29 21 -11 5 -16 13 -12 23 3 9 6 23 6
32 0 12 3 13 12 4 7 -7 23 -12 36 -12 19 0 22 -4 17 -21 -5 -16 -3 -20 6 -17
8 3 14 10 14 16 0 5 3 14 8 18 16 16 6 26 -21 21 -34 -7 -66 8 -39 19 21 8 23
24 2 24 -7 0 -19 -8 -24 -17 -6 -10 -11 -14 -11 -9 0 13 51 99 64 108 6 4 7 8
3 8 -17 0 56 92 80 101 14 5 23 12 20 15 -8 9 54 74 70 74 7 0 13 -4 13 -10 0
-5 11 -10 25 -10 14 0 25 5 25 10 0 6 -6 10 -12 10 -9 0 -8 4 2 10 11 7 16 5
18 -5 2 -8 8 -15 13 -15z m-928 -38 c19 4 24 1 20 -10 -4 -8 1 -19 10 -24 10
-5 17 -15 17 -22 0 -8 6 -19 13 -25 11 -8 14 -5 14 19 0 34 15 56 32 46 13 -9
15 -46 2 -46 -8 0 -12 -11 -26 -62 -2 -5 -3 -14 -4 -20 -1 -10 -4 -9 -10 1 -5
8 -7 21 -3 29 3 10 0 13 -9 10 -15 -5 -26 4 -83 69 -21 23 -35 47 -31 53 5 8
11 5 19 -6 9 -11 22 -15 39 -12z m129 -126 c7 4 7 0 0 -12 -10 -18 -15 -55
-13 -81 2 -21 31 -14 42 10 l10 22 -5 -22 c-3 -17 1 -23 14 -23 11 0 21 -4 25
-9 6 -11 45 -10 45 1 0 4 -7 11 -17 16 -17 10 -27 58 -14 67 9 5 45 -45 75
-103 14 -27 15 -36 5 -48 -10 -13 -14 -12 -30 2 -10 9 -16 21 -13 25 3 5 1 9
-5 9 -17 0 -22 -18 -9 -32 7 -8 18 -23 24 -33 7 -12 22 -20 36 -20 15 0 25 -6
25 -15 3 -30 8 -45 22 -56 11 -9 11 -13 -3 -26 -12 -12 -13 -18 -3 -21 8 -4 6
-6 -4 -6 -13 -1 -39 -38 -39 -56 0 -15 39 -1 43 15 6 24 27 27 27 4 0 -8 -4
-12 -10 -9 -5 3 -10 0 -10 -9 0 -8 4 -16 9 -18 5 -1 14 -68 21 -148 6 -80 13
-162 15 -182 2 -21 -1 -40 -6 -43 -5 -4 -9 3 -9 14 0 11 -9 25 -21 32 -20 10
-21 9 -15 -20 3 -17 9 -44 12 -61 3 -18 1 -30 -5 -30 -6 0 -11 -11 -11 -25 0
-46 -28 -28 -39 25 -21 97 -24 130 -12 130 6 0 11 9 11 20 0 11 -7 20 -15 20
-12 0 -13 4 -3 26 8 17 9 28 2 32 -6 4 -27 41 -47 82 l-36 75 0 -52 c-1 -42
-5 -54 -21 -63 -20 -11 -25 -5 -21 29 2 7 -2 10 -7 7 -15 -9 -63 49 -67 83 -4
28 -2 30 16 21 11 -6 25 -8 32 -4 8 5 7 2 -2 -9 -10 -12 -10 -17 -2 -17 12 0
47 29 40 33 -37 20 -44 26 -44 37 0 7 6 15 13 18 7 2 10 -2 6 -11 -4 -11 1
-13 20 -10 19 4 26 1 26 -11 0 -20 17 -21 36 -2 15 16 8 50 -8 40 -5 -4 -8 6
-6 22 2 18 9 29 18 29 24 0 25 66 2 93 -11 12 -25 22 -31 22 -6 0 -14 13 -17
30 -4 16 -10 27 -15 24 -5 -3 -9 6 -9 20 0 26 -12 32 -62 35 -31 1 -35 -6 -12
-23 13 -10 13 -15 1 -39 -8 -15 -17 -23 -21 -19 -5 4 -6 -4 -4 -18 2 -17 10
-26 26 -28 12 -2 22 -8 22 -13 0 -5 4 -9 9 -9 5 0 7 9 4 20 -6 22 10 24 33 5
8 -7 6 -13 -8 -24 -13 -9 -18 -21 -15 -37 4 -22 2 -23 -37 -20 -22 2 -42 9
-44 15 -5 15 -49 14 -55 -1 -7 -21 3 -37 19 -31 10 4 12 0 8 -11 -3 -9 -2 -16
4 -16 5 0 7 -11 4 -25 -3 -19 0 -25 14 -25 17 0 16 -1 -2 -14 -10 -8 -29 -12
-41 -9 -14 3 -23 1 -23 -6 0 -19 -18 -12 -25 9 -3 11 -13 20 -22 20 -9 0 -13
-6 -9 -15 3 -10 -1 -15 -14 -15 -12 0 -18 6 -17 19 0 11 5 17 10 14 5 -3 13 1
18 8 13 21 11 29 -7 29 -14 0 -14 3 -3 16 10 13 10 17 -2 25 -12 8 -12 10 1
19 20 13 40 13 40 -1 0 -6 6 -9 12 -7 8 3 13 25 14 55 1 62 6 71 50 79 32 6
35 9 29 35 -8 37 2 69 22 69 9 0 13 6 9 15 -7 20 3 47 16 39 5 -3 9 0 7 7 -1
8 0 23 1 34 2 17 3 18 7 2 2 -9 9 -14 15 -11z m-279 -6 c3 -11 4 -20 3 -20 -2
0 -11 9 -21 20 -15 17 -16 20 -3 20 9 0 18 -9 21 -20z m1335 -10 c-15 -23 -18
-23 -52 -10 -40 15 -31 30 19 30 43 0 44 -1 33 -20z m-1333 -35 c28 -10 43
-11 52 -3 10 8 13 7 13 -5 0 -8 10 -22 23 -30 l22 -16 -22 -2 c-13 -1 -29 -2
-35 -3 -7 0 -14 -12 -14 -25 -1 -13 -8 -27 -15 -32 -11 -6 -11 -11 -1 -21 9
-9 12 -9 12 3 0 11 2 12 9 0 11 -18 3 -48 -16 -55 -8 -3 -11 -10 -8 -16 3 -6
-1 -7 -9 -4 -9 3 -16 2 -17 -2 0 -5 -2 -18 -4 -29 -2 -11 0 -37 4 -57 8 -32 6
-38 -10 -43 -10 -4 -23 -4 -28 -1 -5 3 -14 -1 -21 -9 -10 -12 -9 -15 4 -15 9
0 16 -4 16 -9 0 -20 -31 -31 -89 -33 -34 -1 -65 -6 -68 -11 -3 -5 -9 -3 -13 4
-6 9 -12 8 -25 -5 -19 -19 -52 -17 -47 3 1 7 -5 11 -15 9 -11 -2 -17 -11 -15
-21 2 -10 -3 -17 -12 -17 -8 0 -21 -3 -30 -6 -9 -3 -16 -1 -16 5 0 16 104 95
108 82 2 -6 8 -11 14 -11 12 0 38 26 38 38 0 15 90 42 116 36 15 -4 24 -2 24
5 0 7 -6 11 -12 10 -12 -3 -59 6 -101 17 -9 3 -15 10 -12 15 9 14 -5 11 -21
-6 -9 -8 -31 -15 -50 -15 -31 0 -35 3 -32 22 2 16 12 24 32 28 17 3 28 10 27
15 -2 6 11 17 30 26 39 19 49 12 49 -36 0 -21 3 -26 9 -16 5 7 14 10 20 7 6
-4 9 -12 6 -17 -4 -5 -1 -9 4 -9 6 0 11 7 11 15 0 8 9 19 20 25 25 13 27 50 3
51 -12 1 -9 4 7 8 14 4 27 16 29 26 3 16 1 17 -12 7 -13 -11 -21 -11 -44 1
-15 8 -53 20 -83 28 -30 7 -60 17 -67 22 -7 5 -17 6 -23 2 -5 -3 -15 -3 -20 0
-17 11 9 36 65 61 59 28 175 32 240 9z m165 5 c0 -5 -2 -10 -4 -10 -3 0 -8 5
-11 10 -3 6 -1 10 4 10 6 0 11 -4 11 -10z m44 3 c-5 -5 -12 -12 -15 -16 -3 -5
-9 -2 -12 7 -5 12 0 16 15 16 12 0 17 -3 12 -7z m-44 -129 c0 -8 -4 -14 -10
-14 -5 0 -10 9 -10 21 0 11 5 17 10 14 6 -3 10 -13 10 -21z m1210 -5 c54 -11
64 -23 28 -33 -37 -9 -46 -7 -53 13 -3 11 -16 22 -28 24 -12 2 -17 5 -10 6 7
0 35 -4 63 -10z m-322 -48 c3 -8 -1 -12 -9 -9 -7 2 -15 10 -17 17 -3 8 1 12 9
9 7 -2 15 -10 17 -17z m58 4 c4 -8 13 -15 21 -15 9 0 13 -6 10 -14 -8 -20 39
-44 55 -28 9 9 9 12 -1 12 -8 0 -3 8 10 18 28 21 59 35 58 24 -4 -21 3 -31 21
-29 11 1 20 5 20 10 0 5 14 -1 31 -13 28 -21 31 -21 49 -5 20 18 91 18 97 -1
2 -7 -21 -13 -64 -17 -37 -2 -76 -8 -86 -12 -13 -6 -16 -4 -11 10 5 13 2 16
-12 13 -11 -2 -20 -13 -22 -26 -2 -12 -10 -22 -18 -22 -8 0 -12 -4 -9 -10 10
-16 -28 1 -43 19 -10 12 -16 13 -30 5 -29 -19 -79 -26 -87 -14 -5 8 -11 5 -21
-7 -13 -17 -14 -17 -8 1 9 23 -15 39 -34 23 -8 -6 -31 -12 -51 -13 -20 -1 -51
-5 -68 -9 -27 -5 -32 -3 -27 9 3 9 10 14 14 11 4 -3 22 0 40 6 23 9 34 9 43 0
16 -16 30 -14 23 4 -4 12 3 15 37 15 66 -1 78 1 71 11 -3 6 -11 8 -17 6 -17
-5 -40 21 -33 38 7 19 35 19 42 0z m410 -26 c16 -18 16 -19 -4 -19 -12 0 -22
5 -22 11 0 7 -8 18 -17 25 -16 12 -16 13 4 8 12 -4 29 -15 39 -25z m-1196 -60
c0 -6 -4 -7 -10 -4 -5 3 -10 11 -10 16 0 6 5 7 10 4 6 -3 10 -11 10 -16z m20
-29 c0 -5 -10 -10 -22 -10 -19 0 -20 2 -8 10 19 13 30 13 30 0z m640 -11 c0
-4 -7 -6 -15 -3 -8 4 -15 10 -15 15 0 4 7 6 15 3 8 -4 15 -10 15 -15z m445 11
c3 -5 1 -10 -4 -10 -6 0 -11 5 -11 10 0 6 2 10 4 10 3 0 8 -4 11 -10z m-495
-10 c12 -8 10 -10 -10 -11 -17 0 -20 -3 -10 -7 15 -7 23 -24 24 -54 0 -10 4
-18 9 -18 4 0 5 -4 2 -10 -3 -5 -15 -10 -26 -10 -11 0 -17 5 -14 10 3 6 -1 13
-9 16 -12 4 -14 15 -10 42 5 31 4 34 -9 24 -10 -9 -17 -10 -22 -2 -3 5 0 12 7
14 7 3 20 7 28 9 22 8 24 8 40 -3z m533 -27 c-5 -13 0 -15 28 -10 28 5 40 1
69 -23 l35 -29 -39 -1 c-30 0 -37 3 -32 15 4 10 -1 15 -14 15 -11 0 -20 -4
-20 -10 0 -16 -87 -12 -104 5 -16 16 -36 20 -36 7 0 -5 -21 -8 -47 -7 -27 1
-63 -2 -82 -6 -21 -5 -41 -3 -53 4 -12 8 -21 9 -26 2 -10 -14 -56 -39 -47 -26
3 6 -2 15 -12 19 -12 5 -19 19 -20 42 0 19 1 27 4 18 7 -28 50 -50 72 -38 14
7 22 7 26 0 10 -16 25 -2 18 16 -5 13 -2 15 18 8 37 -13 86 -8 104 10 12 12
21 13 36 6 10 -6 19 -13 19 -16 0 -3 -6 -2 -12 2 -10 5 -10 4 -2 -5 12 -13 47
-4 38 10 -3 5 9 6 26 3 24 -5 30 -3 30 11 0 14 3 15 14 5 8 -6 12 -19 9 -27z
m-639 -7 c-2 -19 0 -37 5 -40 9 -6 3 -55 -8 -57 -30 -5 -71 -5 -71 0 1 20 14
51 22 51 5 0 7 -4 4 -9 -8 -12 21 -34 34 -26 7 4 9 17 5 34 -4 14 -8 32 -8 39
0 6 -7 12 -14 12 -8 0 -11 5 -8 10 4 6 10 8 15 5 5 -3 11 -1 15 5 11 18 14 11
9 -24z m-49 -26 c3 -5 1 -10 -4 -10 -6 0 -11 5 -11 10 0 6 2 10 4 10 3 0 8 -4
11 -10z m-595 -60 c0 -5 -4 -10 -10 -10 -5 0 -10 5 -10 10 0 6 5 10 10 10 6 0
10 -4 10 -10z m793 -53 c-22 -24 -48 -64 -58 -90 -10 -26 -20 -45 -23 -42 -12
11 -18 95 -8 100 8 3 7 7 -1 11 -22 10 8 29 62 39 42 8 49 13 47 30 -3 16 -1
17 9 8 10 -10 4 -21 -28 -56z m-26 47 c-3 -3 -12 -4 -19 -1 -8 3 -5 6 6 6 11
1 17 -2 13 -5z m-209 -69 c-6 -14 -15 -25 -19 -25 -4 0 -10 -8 -12 -17 -3 -10
-5 -2 -6 18 -1 40 4 49 30 49 16 0 17 -3 7 -25z m99 -27 c-1 -10 -4 -18 -8
-18 -4 0 -8 -15 -8 -32 -1 -108 -3 -124 -18 -140 -15 -17 -15 -18 1 -18 16 0
17 -6 11 -52 -4 -29 -12 -56 -17 -59 -6 -4 -7 -16 -3 -28 6 -19 2 -21 -29 -21
-20 0 -36 2 -36 4 0 2 -3 12 -6 21 -4 10 -2 15 7 13 7 -2 15 5 17 15 5 26 -18
77 -35 77 -19 0 -15 177 4 184 7 3 13 12 13 21 0 9 9 15 21 15 20 0 21 -4 15
-42 -4 -23 -12 -46 -19 -50 -7 -4 -7 -8 -2 -8 6 1 19 7 29 15 10 8 22 12 26
10 12 -7 7 49 -5 57 -6 5 -6 11 2 19 6 6 9 17 7 23 -2 6 4 12 15 12 12 0 19
-7 18 -18z m443 -28 c14 -4 20 -8 14 -9 -13 -1 -34 -45 -34 -71 0 -10 11 -31
24 -46 29 -34 84 -38 117 -8 l21 19 -4 -66 c-3 -54 -9 -74 -32 -104 -53 -69
-143 -92 -221 -56 -72 33 -105 86 -105 167 0 117 115 208 220 174z m-1222 -55
c2 -2 -6 -13 -17 -24 -32 -32 -29 -93 5 -120 15 -12 39 -21 54 -21 15 0 39 9
54 21 l26 20 0 -42 c0 -158 -180 -243 -301 -142 -43 36 -59 74 -59 138 0 85
39 142 117 171 33 12 109 12 121 -1z m770 -406 c96 -25 153 -54 146 -74 -7
-18 -14 -18 -74 -4 -24 5 -56 7 -69 4 -22 -6 -19 -9 31 -29 30 -12 70 -32 89
-44 39 -24 105 -89 98 -96 -3 -3 -25 1 -49 8 -25 7 -76 16 -115 19 l-70 6 58
-26 c31 -14 57 -29 57 -33 0 -5 -18 -11 -40 -14 -22 -3 -58 -9 -80 -12 -41 -6
-70 -33 -70 -65 0 -34 -28 -27 -57 15 -47 66 -106 91 -223 92 -76 1 -96 4 -98
16 -3 18 56 73 104 96 68 32 37 39 -95 22 -41 -6 -76 -8 -78 -6 -11 11 77 82
133 108 108 50 253 57 402 17z m336 -413 c37 -22 93 -63 124 -92 l57 -51 -3
73 c-2 41 1 74 5 74 5 0 30 -14 55 -30 43 -29 62 -51 166 -192 24 -32 45 -58
49 -58 6 0 -4 91 -13 115 -10 26 14 16 56 -21 49 -44 110 -165 144 -284 l24
-85 12 43 c15 56 31 92 42 92 11 0 90 -160 121 -247 55 -152 73 -363 43 -503
-26 -118 -166 -527 -211 -617 -50 -98 -72 -130 -81 -120 -9 8 -23 151 -23 236
-1 83 -12 71 -46 -48 -30 -108 -60 -172 -119 -253 -45 -63 -76 -75 -76 -30 0
15 9 85 20 156 25 163 25 174 -4 105 -28 -69 -49 -104 -145 -244 l-76 -110 -3
118 c-1 64 5 186 14 270 30 280 29 433 -3 565 -5 23 -6 23 -42 -12 -20 -20
-41 -36 -47 -36 -5 0 -23 39 -39 86 -17 48 -43 109 -58 137 l-29 50 -58 -58
-58 -58 -16 51 c-8 28 -18 71 -21 96 -4 26 -11 46 -15 46 -4 0 -24 -20 -44
-45 -33 -40 -39 -43 -60 -34 -13 7 -28 26 -34 46 -11 36 -10 37 53 105 48 52
78 98 119 181 61 126 76 178 76 268 0 61 -1 64 -44 105 -24 23 -60 47 -79 53
-32 11 -38 18 -55 74 l-19 62 46 3 c27 2 80 -7 128 -21 l82 -24 -14 27 c-7 14
-16 42 -20 63 l-7 37 29 -13 c16 -6 60 -30 97 -51z m-864 -6 c0 -11 -7 -37
-15 -57 -8 -19 -15 -37 -15 -38 0 -2 28 6 63 17 76 23 187 36 187 20 0 -34
-21 -59 -57 -70 -57 -17 -117 -64 -138 -107 -37 -79 1 -217 96 -348 19 -26 27
-47 23 -59 -4 -14 -1 -18 10 -16 8 2 26 -12 40 -30 13 -19 42 -52 63 -75 40
-44 41 -51 18 -127 -7 -25 -16 -58 -19 -73 -4 -16 -11 -27 -15 -25 -5 2 -30
29 -56 62 -54 66 -56 65 -75 -34 -20 -109 -23 -111 -85 -50 -45 44 -56 51 -69
41 -16 -13 -66 -128 -87 -200 -16 -56 -34 -61 -69 -22 -16 17 -33 31 -38 31
-12 0 -42 -191 -42 -267 0 -32 7 -110 14 -173 19 -149 39 -433 34 -490 l-3
-45 -70 100 c-97 137 -134 199 -161 270 -29 74 -29 70 -4 -96 11 -74 22 -149
24 -167 8 -54 -25 -41 -80 31 -59 78 -86 136 -120 260 -15 54 -29 95 -32 92
-3 -3 -9 -67 -14 -142 -4 -75 -11 -140 -17 -146 -15 -15 -79 93 -127 216 -57
143 -160 476 -173 557 -31 188 10 402 115 612 24 47 47 89 52 92 12 7 40 -55
49 -106 l6 -42 24 89 c32 123 91 240 147 294 25 25 48 42 51 39 4 -3 1 -34 -5
-68 -6 -34 -9 -64 -7 -66 2 -3 42 46 88 108 77 103 157 178 192 178 6 0 8 -25
4 -71 l-6 -70 37 31 c79 66 228 160 253 160 5 0 9 -9 9 -20z m520 -929 c0 -12
-20 -25 -27 -18 -7 7 6 27 18 27 5 0 9 -4 9 -9z"/>
<path d="M3360 4760 c0 -5 5 -10 11 -10 5 0 7 5 4 10 -3 6 -8 10 -11 10 -2 0
-4 -4 -4 -10z"/>
<path d="M3296 4704 c7 -3 10 -14 7 -24 -4 -15 0 -20 16 -20 11 0 21 5 21 11
0 13 -30 39 -45 38 -5 0 -5 -3 1 -5z"/>
<path d="M3475 4640 c-3 -5 1 -10 9 -10 9 0 16 5 16 10 0 6 -4 10 -9 10 -6 0
-13 -4 -16 -10z"/>
<path d="M3270 4629 c0 -5 5 -7 10 -4 6 3 10 8 10 11 0 2 -4 4 -10 4 -5 0 -10
-5 -10 -11z"/>
<path d="M3450 4610 c-21 -13 -3 -26 45 -34 36 -5 38 -5 15 7 -14 6 -29 17
-35 24 -7 8 -15 10 -25 3z"/>
<path d="M3450 4560 c0 -5 7 -10 15 -10 8 0 15 5 15 10 0 6 -7 10 -15 10 -8 0
-15 -4 -15 -10z"/>
<path d="M3217 4543 c-3 -5 -2 -15 2 -22 5 -7 11 -9 14 -4 3 5 2 15 -2 22 -5
7 -11 9 -14 4z"/>
<path d="M3370 4542 c0 -14 11 -21 26 -15 8 3 11 9 8 14 -7 11 -34 12 -34 1z"/>
<path d="M3306 4529 c4 -8 0 -9 -15 -4 -28 9 -29 -20 -1 -35 15 -8 19 -17 15
-31 -4 -13 -2 -19 8 -19 8 0 17 10 21 23 6 23 -13 77 -27 77 -5 0 -5 -5 -1
-11z"/>
<path d="M3680 4531 c0 -6 5 -13 10 -16 6 -3 10 -1 10 5 0 6 5 8 12 4 7 -4 8
-3 4 4 -9 14 -36 16 -36 3z"/>
<path d="M2595 4370 c3 -5 10 -10 16 -10 5 0 9 5 9 10 0 6 -7 10 -16 10 -8 0
-12 -4 -9 -10z"/>
<path d="M2830 4310 c0 -23 13 -26 29 -6 9 11 8 15 -5 20 -23 9 -24 8 -24 -14z"/>
<path d="M2820 4215 c0 -8 5 -15 10 -15 15 0 8 -33 -10 -47 -10 -8 -11 -12 -3
-13 6 0 15 5 18 10 3 6 17 10 31 10 17 0 24 5 24 20 0 15 -7 20 -25 20 -16 0
-25 6 -25 15 0 8 -4 15 -10 15 -5 0 -10 -7 -10 -15z"/>
<path d="M2685 4130 c-3 -5 1 -10 9 -10 9 0 16 5 16 10 0 6 -4 10 -9 10 -6 0
-13 -4 -16 -10z"/>
<path d="M2886 4133 c-9 -9 -7 -33 3 -33 12 0 22 28 12 34 -5 3 -11 3 -15 -1z"/>
<path d="M2825 4090 c-3 -5 -1 -10 4 -10 6 0 11 5 11 10 0 6 -2 10 -4 10 -3 0
-8 -4 -11 -10z"/>
<path d="M2830 4049 c0 -5 5 -7 10 -4 6 3 10 8 10 11 0 2 -4 4 -10 4 -5 0 -10
-5 -10 -11z"/>
<path d="M2867 3936 c-3 -8 1 -20 9 -26 12 -10 14 -8 14 14 0 28 -14 35 -23
12z"/>
<path d="M2340 4569 c0 -5 5 -7 10 -4 6 3 10 8 10 11 0 2 -4 4 -10 4 -5 0 -10
-5 -10 -11z"/>
<path d="M2392 4545 c-26 -30 -27 -35 -7 -35 8 0 15 -8 15 -17 1 -16 2 -16 15
1 13 17 12 21 -3 32 -16 13 -16 13 1 14 18 0 23 15 9 24 -5 3 -19 -6 -30 -19z"/>
<path d="M2310 4550 c0 -5 5 -10 10 -10 6 0 10 5 10 10 0 6 -4 10 -10 10 -5 0
-10 -4 -10 -10z"/>
<path d="M2192 4541 c4 -13 18 -16 19 -4 0 4 -5 9 -11 12 -7 2 -11 -2 -8 -8z"/>
<path d="M2235 4530 c-3 -5 -2 -10 4 -10 5 0 13 5 16 10 3 6 2 10 -4 10 -5 0
-13 -4 -16 -10z"/>
<path d="M2360 4459 c0 -5 5 -7 10 -4 6 3 10 8 10 11 0 2 -4 4 -10 4 -5 0 -10
-5 -10 -11z"/>
<path d="M2306 4351 c-3 -5 0 -11 8 -14 15 -6 26 1 26 15 0 11 -27 10 -34 -1z"/>
<path d="M2345 4270 c-3 -5 1 -10 9 -10 9 0 16 5 16 10 0 6 -4 10 -9 10 -6 0
-13 -4 -16 -10z"/>
<path d="M2277 4254 c-3 -3 -1 -19 5 -35 8 -23 13 -27 23 -19 10 8 10 16 1 35
-11 25 -18 30 -29 19z"/>
<path d="M2204 4239 c-3 -6 0 -15 7 -20 13 -7 28 5 29 24 0 11 -28 8 -36 -4z"/>
<path d="M2260 4200 c0 -5 5 -10 11 -10 5 0 7 5 4 10 -3 6 -8 10 -11 10 -2 0
-4 -4 -4 -10z"/>
<path d="M3816 4243 c-9 -22 2 -29 24 -15 12 7 20 8 24 1 2 -5 3 -4 2 2 -4 21
-44 30 -50 12z"/>
<path d="M3176 3811 c-4 -7 -5 -15 -2 -18 9 -9 19 4 14 18 -4 11 -6 11 -12 0z"/>
<path d="M3383 2544 c-10 -21 -9 -24 7 -24 10 0 21 7 24 16 8 21 8 21 -7 27
-7 2 -18 -6 -24 -19z"/>
<path d="M3425 2510 c-3 -5 1 -10 10 -10 9 0 13 5 10 10 -3 6 -8 10 -10 10 -2
0 -7 -4 -10 -10z"/>
<path d="M3403 2452 c-12 -8 -12 -49 0 -44 4 1 14 2 22 2 9 0 12 6 9 15 -4 8
-1 15 5 15 6 0 11 5 11 10 0 12 -30 13 -47 2z"/>
<path d="M2738 2639 c-16 -9 -15 -39 2 -39 12 0 40 29 40 41 0 12 -20 11 -42
-2z"/>
<path d="M2820 2530 c0 -5 5 -10 11 -10 5 0 7 5 4 10 -3 6 -8 10 -11 10 -2 0
-4 -4 -4 -10z"/>
</g>
</svg>
