<?xml version="1.0" standalone="no"?>
<!DOCTYPE svg PUBLIC "-//W3C//DTD SVG 20010904//EN"
 "http://www.w3.org/TR/2001/REC-SVG-20010904/DTD/svg10.dtd">
<svg version="1.0" xmlns="http://www.w3.org/2000/svg"
 width="920.000000pt" height="921.000000pt" viewBox="0 0 920.000000 921.000000"
 preserveAspectRatio="xMidYMid meet">

<g transform="translate(0.000000,921.000000) scale(0.100000,-0.100000)"
fill="#000000" stroke="none">
<path d="M4592 7700 c-14 -218 -32 -399 -58 -553 -9 -54 -14 -101 -11 -103 7
-7 207 -28 213 -22 3 4 43 381 44 428 2 57 102 -228 126 -358 l16 -90 54 -6
c30 -3 78 -9 108 -12 l53 -6 7 134 c9 178 33 429 52 558 9 58 17 121 18 140
l1 35 -103 9 c-57 4 -105 6 -108 4 -2 -3 -13 -91 -23 -197 -10 -105 -20 -194
-23 -196 -2 -2 -33 88 -68 201 -51 166 -68 207 -84 214 -12 4 -62 11 -112 15
l-90 7 -12 -202z"/>
<path d="M3805 7797 l-160 -42 7 -65 c21 -181 39 -426 45 -607 3 -112 9 -203
11 -203 3 0 54 12 113 26 l108 25 -2 71 -2 71 50 13 c79 21 82 20 106 -46 12
-33 26 -60 31 -60 12 0 212 51 216 55 2 1 -21 52 -51 111 -67 134 -188 407
-252 572 -27 67 -51 122 -54 121 -3 0 -78 -20 -166 -42z m120 -352 c42 -107
65 -179 59 -185 -5 -5 -27 -12 -49 -15 l-41 -7 -17 164 c-10 89 -20 175 -23
191 -3 15 -4 27 -1 27 2 0 35 -79 72 -175z"/>
<path d="M5690 7648 c-57 -155 -233 -526 -313 -659 l-34 -56 98 -49 c62 -30
102 -45 108 -39 5 6 49 95 97 198 81 173 89 186 97 160 16 -53 -4 -347 -29
-425 -4 -14 14 -27 85 -63 50 -25 96 -45 103 -45 8 0 35 54 62 123 55 140 205
453 272 569 25 44 44 81 42 83 -19 17 -193 94 -199 88 -4 -4 -42 -82 -85 -173
-42 -91 -81 -169 -86 -175 -9 -10 -8 44 8 331 l6 100 -97 47 c-53 26 -100 47
-105 47 -4 0 -17 -28 -30 -62z"/>
<path d="M2529 7162 c-102 -86 -200 -169 -218 -185 l-33 -27 57 -70 c32 -39
62 -73 67 -76 6 -4 38 21 72 55 34 33 66 61 71 61 6 -1 27 -22 48 -48 162
-199 272 -338 318 -403 l54 -76 92 77 91 77 -85 94 c-134 146 -348 399 -351
413 -2 8 30 36 71 63 l74 50 -65 76 c-35 42 -67 77 -70 76 -4 0 -91 -71 -193
-157z"/>
<path d="M6529 7088 c-103 -138 -265 -331 -382 -454 l-96 -101 89 -74 c49 -41
91 -73 95 -72 3 2 40 47 82 100 112 144 306 374 395 468 43 46 78 85 78 87 0
7 -168 148 -177 148 -4 0 -42 -46 -84 -102z"/>
<path d="M7000 6712 c-109 -94 -367 -285 -502 -372 -64 -41 -115 -80 -113 -86
2 -6 70 -101 153 -212 l149 -201 82 60 81 61 -53 62 c-64 73 -127 156 -127
166 0 4 24 26 54 48 l54 41 58 -77 c31 -42 58 -79 60 -81 2 -3 129 63 142 75
2 1 -23 38 -57 82 -33 44 -62 84 -63 90 -4 14 130 114 142 107 13 -8 150 -214
150 -226 0 -5 4 -9 8 -9 7 0 143 97 159 114 6 6 -5 21 -172 247 l-131 176 -74
-65z"/>
<path d="M1884 6456 l-95 -141 39 -35 c268 -245 378 -350 477 -456 l118 -125
65 98 65 97 -53 47 -52 46 37 56 c21 32 42 57 47 57 5 0 31 -11 58 -25 27 -14
54 -25 59 -25 16 0 134 181 124 190 -4 4 -60 28 -123 53 -147 57 -325 136
-518 230 l-154 74 -94 -141z m329 -187 c89 -45 164 -83 166 -85 5 -5 -47 -84
-55 -84 -4 0 -61 48 -128 107 -153 135 -162 143 -153 143 4 0 80 -37 170 -81z"/>
<path d="M3910 6053 c-69 -11 -233 -47 -298 -66 -51 -14 -79 -28 -89 -44 -8
-13 -20 -23 -25 -23 -6 0 -4 7 3 16 12 15 11 16 -11 9 -105 -32 -325 -178
-342 -227 -5 -15 -14 -26 -18 -23 -14 9 -60 -60 -76 -112 -15 -47 -11 -163 4
-163 4 0 8 -12 8 -28 1 -15 7 -40 13 -57 10 -24 14 -27 22 -15 8 12 10 9 6
-12 -2 -15 0 -33 4 -40 7 -10 9 -9 9 5 0 9 5 17 10 17 13 0 13 -23 0 -36 -7
-7 -2 -25 16 -57 28 -52 44 -60 44 -23 0 14 5 28 10 31 6 4 8 11 5 16 -4 5 0
9 7 9 17 0 18 -92 1 -103 -10 -6 -10 -11 0 -21 6 -8 15 -12 19 -10 4 3 5 -5 3
-17 -3 -16 12 -43 53 -93 149 -185 257 -251 329 -201 37 26 64 159 76 375 2
42 4 38 24 -50 37 -158 46 -228 41 -334 -6 -122 -30 -192 -114 -327 -123 -200
-139 -240 -174 -423 -78 -413 -28 -790 151 -1148 27 -54 53 -98 57 -98 4 0 31
27 60 60 29 33 59 60 66 60 7 0 40 -17 72 -38 85 -55 144 -73 260 -79 75 -4
114 -1 156 11 l55 16 5 203 c8 324 38 297 38 -35 l0 -148 39 25 38 26 5 229
c4 214 8 253 24 237 3 -3 9 -101 12 -217 l5 -212 35 35 35 35 3 139 c1 76 6
194 10 263 11 184 23 108 31 -192 l6 -247 36 -35 36 -35 1 162 c0 89 4 198 9
242 7 73 9 77 17 45 5 -19 11 -136 13 -260 l5 -225 37 -22 38 -22 2 197 c1
108 6 211 11 227 8 27 10 24 18 -40 5 -38 9 -143 9 -232 l-1 -161 51 -7 c101
-12 148 8 301 128 23 18 24 18 100 -48 77 -67 141 -104 181 -105 66 0 116 157
188 590 67 395 58 646 -29 862 -34 84 -77 151 -179 280 -100 127 -143 206
-153 284 -6 52 11 209 27 249 7 19 8 19 8 -2 1 -36 52 -165 82 -209 31 -45 80
-74 128 -74 42 0 91 45 164 154 33 50 80 112 104 137 23 25 39 50 35 54 -4 5
-2 5 4 2 6 -4 35 19 64 51 28 31 63 69 77 83 14 15 22 32 19 38 -4 7 -2 10 5
9 6 -2 22 17 34 42 27 52 42 120 27 120 -17 0 -35 -29 -29 -49 3 -14 1 -18 -9
-14 -12 4 -16 25 -13 61 0 4 7 6 14 4 19 -4 32 26 30 65 -3 35 -51 118 -87
149 -12 10 -18 13 -14 7 4 -7 2 -13 -4 -13 -8 0 -7 -6 1 -21 6 -12 7 -20 2
-17 -59 29 -64 33 -60 50 3 10 1 16 -4 12 -5 -3 -9 0 -9 6 0 6 10 14 21 19 20
7 19 10 -21 39 -48 35 -60 34 -56 -3 2 -13 -1 -22 -6 -19 -15 9 -39 -17 -33
-36 3 -10 0 -20 -9 -23 -17 -7 -29 40 -12 48 8 3 7 7 -1 11 -20 9 -15 23 5 17
19 -5 19 -4 13 62 -2 18 -128 80 -301 148 -216 85 -289 107 -380 114 -64 5
-86 2 -153 -21 -74 -25 -84 -26 -221 -20 -86 4 -212 2 -318 -6 -171 -12 -177
-12 -205 8 -61 43 -214 64 -333 45z m-118 -216 c-17 -13 -29 -27 -25 -31 4 -4
0 -4 -10 0 -9 3 -17 9 -17 12 0 14 38 41 59 41 24 1 24 0 -7 -22z m-300 -34
c2 -5 -11 -23 -29 -41 -29 -29 -33 -31 -33 -14 0 25 -27 23 -45 -2 -16 -22
-25 -9 -18 27 5 27 26 36 38 17 9 -15 41 -12 55 5 14 16 27 19 32 8z m78 -10
c0 -10 -20 -40 -20 -31 0 3 -3 13 -6 22 -4 11 -1 16 10 16 9 0 16 -3 16 -7z
m145 -3 c-3 -5 -12 -10 -18 -10 -7 0 -6 4 3 10 19 12 23 12 15 0z m1219 -22
c-5 -7 -27 -37 -51 -66 -24 -29 -52 -70 -63 -92 l-20 -38 50 33 c43 29 124 55
135 43 2 -2 -9 -18 -26 -36 -16 -18 -28 -32 -26 -32 3 0 24 7 47 15 55 20 143
19 182 -1 35 -18 31 -24 -37 -49 -27 -10 -61 -25 -74 -34 -25 -16 -25 -16 25
-23 50 -7 144 -45 144 -59 0 -4 -26 -11 -57 -14 -32 -4 -71 -10 -88 -14 -30
-7 -30 -8 12 -14 51 -8 143 -48 160 -68 10 -12 -12 -14 -155 -14 -152 0 -171
-2 -207 -22 -49 -26 -79 -58 -99 -103 -17 -41 -24 -30 -28 45 l-3 50 -17 -53
c-10 -30 -20 -95 -23 -145 -9 -132 -10 -137 -44 -137 -26 0 -29 4 -35 46 -10
74 -7 376 4 435 25 128 138 290 235 336 57 26 69 28 59 11z m509 -13 c-3 -9
-8 -14 -10 -11 -3 3 -2 9 2 15 9 16 15 13 8 -4z m57 5 c0 -5 -2 -10 -4 -10 -3
0 -8 5 -11 10 -3 6 -1 10 4 10 6 0 11 -4 11 -10z m210 0 c8 -5 12 -10 10 -12
-39 -25 -48 -26 -53 -7 -3 10 -1 17 4 13 5 -3 9 0 9 5 0 13 10 14 30 1z
m-1482 -25 c99 -46 208 -186 243 -310 9 -35 22 -128 28 -207 6 -79 14 -169 18
-200 6 -56 5 -57 -21 -64 -37 -9 -45 2 -57 77 -22 132 -30 165 -49 204 l-18
40 -1 -64 -1 -65 -29 47 c-39 61 -94 89 -186 95 -61 4 -215 -15 -280 -35 -18
-5 -17 -3 5 22 25 27 131 84 160 86 43 2 -33 18 -89 18 -57 1 -62 3 -50 17 20
24 88 55 138 63 l46 7 -32 17 c-18 10 -58 23 -88 30 -31 7 -56 17 -56 22 0 6
17 19 37 29 43 22 140 25 189 6 l30 -11 -34 35 -35 36 41 0 c24 0 62 -11 97
-28 31 -16 56 -27 56 -24 0 9 -54 76 -104 130 -57 60 -45 68 42 27z m-828 -16
c0 -11 -4 -18 -10 -14 -5 3 -7 12 -3 20 7 21 13 19 13 -6z m294 -26 c-18 -14
-20 -18 -23 -55 -1 -11 -9 -18 -21 -18 -12 0 -20 7 -20 18 0 19 73 92 79 78 2
-5 -5 -15 -15 -23z m1753 -35 c-3 -7 -5 -2 -5 12 0 14 2 19 5 13 2 -7 2 -19 0
-25z m-2201 -5 c-10 -10 -19 5 -10 18 6 11 8 11 12 0 2 -7 1 -15 -2 -18z
m2378 -28 c-4 -8 -8 -15 -10 -15 -2 0 -4 7 -4 15 0 8 4 15 10 15 5 0 7 -7 4
-15z m200 0 c-10 -8 -15 -15 -10 -15 10 0 -13 -30 -24 -30 -4 0 -7 10 -6 23 0
12 6 22 13 22 6 0 15 3 19 8 4 4 12 7 18 7 5 0 1 -7 -10 -15z m-2274 -30 c0
-14 -4 -25 -10 -25 -11 0 -14 33 -3 43 11 11 13 8 13 -18z m110 -4 c0 -6 -4
-13 -10 -16 -5 -3 -10 1 -10 9 0 9 5 16 10 16 6 0 10 -4 10 -9z m2255 -1 c3
-5 1 -10 -4 -10 -6 0 -11 5 -11 10 0 6 2 10 4 10 3 0 8 -4 11 -10z m50 -10 c3
-5 -1 -10 -10 -10 -9 0 -13 5 -10 10 3 6 8 10 10 10 2 0 7 -4 10 -10z m-2678
-6 c-3 -3 -12 -4 -19 -1 -8 3 -5 6 6 6 11 1 17 -2 13 -5z m173 -4 c0 -5 -5
-10 -11 -10 -5 0 -7 5 -4 10 3 6 8 10 11 10 2 0 4 -4 4 -10z m50 -20 c-24 -15
-31 -11 -18 10 9 13 16 16 23 9 7 -7 5 -13 -5 -19z m2425 0 c4 -6 2 -17 -5
-25 -9 -11 -7 -12 12 -9 20 5 21 4 6 -6 -13 -8 -24 -8 -40 2 -13 7 -27 11 -31
10 -5 -2 -7 3 -4 10 2 7 11 12 21 10 9 -2 16 2 16 8 0 13 17 13 25 0z m-2655
-59 c-16 -31 -11 -38 9 -14 10 12 21 19 25 16 3 -4 6 1 6 10 0 10 6 17 14 17
22 0 15 -69 -9 -86 -13 -10 -14 -14 -5 -14 12 0 12 -2 1 -12 -11 -10 -14 -10
-18 -1 -3 7 -13 23 -24 35 -16 20 -20 21 -29 8 -8 -13 -10 -13 -10 2 0 9 5 20
11 24 6 3 8 15 6 26 -3 11 -3 26 0 34 4 12 8 11 20 -5 10 -15 11 -26 3 -40z
m181 25 c-3 -19 -6 -24 -9 -13 -4 19 -22 24 -22 5 0 -9 -3 -9 -11 -1 -17 17
-4 41 23 41 21 0 24 -4 19 -32z m-71 15 c0 -6 -4 -13 -10 -16 -5 -3 -10 1 -10
9 0 9 5 16 10 16 6 0 10 -4 10 -9z m-166 -33 c3 -13 1 -24 -4 -26 -6 -2 -10
-12 -10 -22 0 -29 -17 -33 -24 -6 -6 25 11 76 24 76 4 0 10 -10 14 -22z m421
-4 c-7 -8 -20 -14 -28 -14 -18 0 -39 -24 -30 -33 3 -4 1 -7 -5 -7 -7 0 -12 7
-12 16 0 21 19 56 28 50 5 -3 14 -1 22 4 7 4 19 6 26 3 11 -4 11 -8 -1 -19z
m2255 -14 c0 -11 -6 -20 -14 -20 -9 0 -12 7 -9 20 3 11 9 20 14 20 5 0 9 -9 9
-20z m-2770 -30 c0 -13 -1 -13 -10 0 -5 8 -10 11 -10 7 0 -5 -4 -5 -10 -2 -6
4 -5 11 3 19 13 15 27 3 27 -24z m2660 5 c0 -7 -6 -24 -14 -39 -13 -26 -13
-26 -31 -6 -15 17 -16 20 -3 20 19 0 30 24 21 48 -6 15 -5 15 10 3 9 -7 17
-19 17 -26z m285 25 c-3 -5 -12 -10 -18 -10 -7 0 -6 4 3 10 19 12 23 12 15 0z
m-175 -51 c11 -19 10 -20 -9 -9 -12 6 -21 15 -21 20 0 18 19 11 30 -11z
m-2706 -40 c-8 -14 17 -41 33 -35 7 3 13 -1 13 -9 0 -8 -3 -14 -7 -13 -13 2
-47 -15 -61 -31 -11 -13 -12 -8 -7 33 8 60 14 77 26 70 5 -3 7 -10 3 -15z
m301 -26 c18 -14 18 -15 1 -9 -12 4 -24 0 -33 -11 -8 -10 -12 -12 -8 -5 4 7 1
19 -5 27 -10 12 -9 15 6 15 11 0 28 -8 39 -17z m2312 -15 c-15 -9 -19 -4 -11
16 5 14 9 15 15 5 5 -8 3 -17 -4 -21z m48 -7 c8 -25 3 -91 -6 -91 -13 0 -20
18 -9 25 5 3 10 13 10 22 0 9 -3 13 -7 10 -12 -12 -32 27 -21 40 15 18 26 16
33 -6z m165 -12 c0 -5 -7 -9 -15 -9 -8 0 -15 7 -15 15 0 9 6 12 15 9 8 -4 15
-10 15 -15z m-2662 -24 c10 -4 22 2 33 17 20 25 36 19 24 -9 -5 -10 -9 -21 -9
-25 -2 -13 -16 -21 -16 -9 0 7 -4 10 -10 6 -5 -3 -7 -12 -3 -20 3 -8 0 -15 -6
-15 -6 0 -11 7 -11 15 0 21 -18 19 -25 -4 -3 -11 -12 -22 -20 -25 -8 -3 -15
-14 -15 -24 0 -28 -33 -55 -48 -40 -21 21 -11 89 14 90 15 1 64 52 65 68 1 12
2 11 6 -2 2 -9 12 -19 21 -23z m-133 -44 c-3 -6 -11 -11 -17 -11 -6 0 -6 6 2
15 14 17 26 13 15 -4z m2592 -23 c-2 -7 1 -26 8 -43 6 -17 8 -45 4 -65 -3 -19
-7 -29 -8 -22 -2 20 -21 14 -21 -8 0 -11 -4 -20 -9 -20 -13 0 -24 31 -22 63 3
30 -13 36 -27 11 -8 -14 -10 -15 -15 -1 -4 11 3 20 22 28 15 7 33 25 40 41 12
27 37 41 28 16z m93 -23 c0 -8 -2 -15 -4 -15 -2 0 -6 7 -10 15 -3 8 -1 15 4
15 6 0 10 -7 10 -15z m-873 -31 c19 -5 20 -9 11 -30 -8 -18 -8 -31 1 -50 11
-24 16 -26 56 -21 44 4 45 4 45 -25 0 -71 -58 -128 -130 -128 -143 0 -177 187
-45 246 35 16 34 15 62 8z m877 -9 c3 -8 1 -15 -3 -15 -5 0 -7 -9 -4 -20 6
-21 -12 -29 -19 -8 -6 17 3 58 12 58 4 0 10 -7 14 -15z m-2344 -4 c0 -6 -4
-13 -10 -16 -5 -3 -10 1 -10 9 0 9 5 16 10 16 6 0 10 -4 10 -9z m-141 -17 c22
-19 17 -44 -9 -44 -17 0 -34 43 -22 55 8 7 10 7 31 -11z m86 -4 c3 -5 1 -10
-4 -10 -6 0 -11 5 -11 10 0 6 2 10 4 10 3 0 8 -4 11 -10z m648 -6 c13 -5 13
-8 -4 -25 -24 -24 -24 -44 1 -69 24 -24 47 -25 72 -3 17 15 18 14 18 -29 0
-69 -58 -128 -125 -128 -104 0 -165 131 -98 210 37 44 91 62 136 44z m-580
-59 c-3 -9 -8 -14 -10 -11 -3 3 -2 9 2 15 9 16 15 13 8 -4z m2234 -17 c-3 -8
-6 -5 -6 6 -1 11 2 17 5 13 3 -3 4 -12 1 -19z m-2170 -93 c-4 -8 -12 -15 -19
-14 -10 0 -10 2 0 6 6 2 12 12 12 21 0 8 3 13 6 9 4 -3 4 -13 1 -22z m-97 -41
c0 -8 -5 -12 -10 -9 -6 4 -8 11 -5 16 9 14 15 11 15 -7z m50 -38 c0 -2 -7 -7
-16 -10 -8 -3 -12 -2 -9 4 6 10 25 14 25 6z m1082 -37 c65 -14 149 -49 143
-59 -3 -5 -33 -6 -68 -4 l-62 5 60 -29 c58 -28 122 -78 112 -88 -2 -3 -24 0
-48 5 -24 6 -57 10 -74 10 l-30 0 40 -22 40 -21 -55 -11 c-66 -12 -80 -20 -80
-46 0 -27 -24 -24 -40 6 -21 39 -86 65 -163 65 -37 0 -67 4 -67 8 0 12 50 57
85 76 30 17 29 17 -53 12 l-84 -4 24 25 c64 69 194 98 320 72z m251 -290 c23
-12 69 -43 103 -70 l61 -48 -5 49 c-3 35 -1 50 8 50 25 0 72 -44 127 -118 75
-103 76 -104 68 -57 -4 22 -9 48 -12 58 -5 18 -3 18 20 2 40 -26 76 -89 112
-198 21 -62 34 -91 35 -74 0 15 7 42 16 59 l16 30 20 -33 c90 -147 130 -370
93 -514 -46 -178 -149 -455 -188 -503 -16 -20 -27 5 -28 68 0 30 -4 75 -7 100
l-7 45 -18 -65 c-28 -100 -36 -120 -81 -187 -38 -59 -66 -80 -66 -50 0 6 7 55
15 107 20 130 18 144 -8 79 -13 -30 -52 -97 -88 -148 l-64 -94 -3 79 c-2 44 2
126 8 184 20 185 23 273 11 350 -7 41 -14 76 -17 79 -2 2 -18 -8 -34 -24 -22
-21 -31 -25 -34 -14 -49 139 -69 179 -91 179 -7 0 -25 -16 -40 -36 -16 -21
-31 -32 -36 -27 -5 5 -14 38 -21 73 l-11 64 -43 -48 -42 -49 -11 39 c-15 53
-16 51 29 102 52 58 93 131 119 209 38 113 24 173 -51 213 -38 19 -46 29 -54
66 l-10 44 35 0 c20 0 58 -7 85 -15 27 -8 51 -13 53 -11 2 2 -1 15 -7 30 -20
53 -16 55 43 25z m-593 -25 c0 -8 -5 -24 -11 -36 -16 -29 -7 -31 52 -14 29 9
67 16 84 16 28 0 32 -3 28 -22 -3 -16 -20 -30 -53 -45 -54 -24 -90 -70 -90
-115 0 -62 92 -229 173 -316 l31 -32 -13 -62 c-7 -35 -15 -66 -18 -71 -3 -5
-21 10 -40 32 -19 23 -38 41 -43 41 -4 0 -11 -19 -15 -42 -4 -24 -12 -54 -17
-68 l-9 -25 -33 39 c-21 26 -38 37 -48 34 -13 -5 -53 -89 -82 -172 -6 -18 -8
-17 -35 8 -17 16 -31 23 -35 18 -3 -6 -11 -48 -17 -94 -10 -68 -9 -115 5 -258
10 -96 16 -211 14 -254 l-3 -79 -67 99 c-36 54 -76 122 -87 149 -25 62 -25 57
-4 -83 20 -138 12 -155 -40 -80 -43 63 -69 120 -93 208 l-19 65 -10 -108 c-5
-59 -14 -109 -19 -110 -30 -7 -179 388 -207 549 -13 75 -7 177 17 269 17 66
92 235 105 235 7 0 24 -45 31 -85 2 -12 13 11 27 55 31 99 61 158 106 200 35
34 36 34 31 10 -13 -66 -15 -91 -7 -85 5 3 34 41 65 84 47 67 105 121 131 121
4 0 5 -23 3 -50 -1 -28 -1 -50 0 -50 2 0 25 19 50 41 44 39 138 99 155 99 4 0
7 -7 7 -16z"/>
<path d="M7313 5891 c-151 -56 -203 -143 -203 -341 0 -83 -3 -110 -15 -120
-60 -50 -105 123 -56 218 11 22 25 44 31 47 11 7 -141 85 -165 85 -7 0 -26
-26 -42 -57 -22 -46 -29 -75 -31 -140 -11 -236 155 -420 308 -341 71 37 85 70
86 215 1 98 5 127 18 149 23 34 106 71 178 80 52 6 58 4 82 -19 14 -14 26 -33
26 -42 0 -44 -107 -96 -205 -98 -30 -1 -55 -6 -55 -12 0 -10 15 -108 26 -174
l5 -34 77 6 c212 16 336 126 336 297 0 112 -66 224 -159 273 -58 30 -173 34
-242 8z"/>
<path d="M1495 5645 c-41 -129 -78 -240 -81 -248 -4 -11 24 -22 119 -45 152
-38 433 -129 583 -188 61 -24 114 -44 117 -44 11 0 69 202 61 210 -5 4 -71 27
-146 50 -76 24 -138 46 -138 49 0 3 13 47 29 97 l28 91 -72 36 -72 35 -33
-104 c-19 -57 -39 -104 -45 -104 -9 0 -115 34 -172 55 -13 4 21 116 67 223 12
29 21 54 19 56 -2 2 -45 17 -96 34 l-92 30 -76 -233z"/>
<path d="M1681 4225 c-80 -68 -50 -275 40 -275 50 0 78 -47 47 -78 -27 -27
-98 -1 -98 36 0 6 -7 9 -15 6 -21 -9 -19 -21 10 -49 48 -49 145 -23 145 38 0
35 -12 46 -68 62 -28 9 -56 23 -61 33 -31 58 -23 170 14 208 30 30 49 30 76 3
19 -19 21 -30 17 -112 -2 -60 1 -92 8 -94 15 -5 24 43 24 124 0 58 -3 68 -29
94 -36 36 -70 37 -110 4z"/>
<path d="M7245 4226 c-67 -67 -63 -339 6 -376 29 -16 78 -11 98 9 11 11 24 37
30 58 14 50 14 182 0 238 -22 87 -85 120 -134 71z m89 -29 c18 -24 21 -45 24
-145 3 -97 0 -123 -15 -152 -21 -41 -60 -51 -86 -22 -39 43 -45 218 -11 302
25 58 53 64 88 17z"/>
<path d="M1445 4040 l0 -200 83 0 c59 0 82 4 82 13 0 8 -20 12 -67 12 l-68 0
0 70 0 70 45 3 c69 5 74 22 7 22 l-58 0 3 93 3 92 68 0 c47 0 67 4 67 13 0 8
-23 12 -82 12 l-83 0 0 -200z"/>
<path d="M1850 4226 c0 -10 11 -12 45 -8 l45 5 0 -192 c0 -163 2 -191 15 -191
13 0 15 28 15 191 l0 192 45 -5 c34 -4 45 -2 45 8 0 11 -22 14 -105 14 -83 0
-105 -3 -105 -14z"/>
<path d="M7022 4217 c-42 -45 -52 -217 -12 -217 15 0 16 6 8 48 -17 93 12 176
60 170 34 -4 52 -38 52 -99 0 -82 -25 -143 -85 -205 -30 -31 -55 -60 -55 -65
0 -5 38 -9 85 -9 64 0 85 3 85 13 0 10 -15 12 -60 9 -33 -2 -60 -2 -60 1 0 3
14 21 31 39 57 62 83 125 84 205 0 57 -4 77 -21 100 -29 38 -81 43 -112 10z"/>
<path d="M7410 4231 c0 -5 10 -11 23 -13 22 -3 22 -5 25 -190 2 -158 5 -188
17 -188 13 0 15 30 15 200 l0 200 -40 0 c-22 0 -40 -4 -40 -9z"/>
<path d="M7633 4183 c-13 -32 -43 -94 -68 -137 -25 -44 -45 -85 -45 -93 0 -10
19 -13 75 -13 l75 0 0 -50 c0 -38 4 -50 15 -50 13 0 15 21 15 125 0 104 -2
125 -15 125 -12 0 -15 -13 -15 -60 l0 -60 -59 0 -59 0 64 122 c58 110 70 148
47 148 -5 0 -18 -26 -30 -57z"/>
<path d="M2263 2860 c-105 -60 -129 -131 -83 -239 23 -52 23 -54 5 -67 -26
-19 -32 -18 -61 11 -21 21 -25 33 -23 73 3 45 2 47 -25 50 -16 2 -32 -2 -37
-10 -15 -23 -10 -77 11 -117 37 -73 104 -105 159 -76 41 21 49 57 27 115 -31
79 -31 101 3 142 38 45 112 82 146 74 35 -9 43 -50 18 -84 -18 -25 -98 -85
-124 -94 -8 -3 -7 -13 5 -36 9 -18 19 -32 22 -32 18 0 104 54 131 82 54 56 65
105 37 164 -36 76 -123 94 -211 44z"/>
<path d="M6838 2867 c-15 -12 -47 -46 -71 -76 l-44 -54 101 -79 c55 -43 139
-113 184 -155 l84 -76 39 44 c21 24 48 64 60 87 34 68 17 107 -90 213 -47 47
-102 93 -123 102 -51 24 -107 22 -140 -6z m151 -91 c25 -19 62 -52 82 -73 73
-77 84 -112 50 -154 l-19 -23 -142 119 -142 119 32 29 c40 36 72 32 139 -17z"/>
<path d="M2501 2706 l-22 -23 41 -33 40 -32 -58 -62 c-32 -34 -99 -101 -149
-148 l-91 -86 33 -32 32 -31 20 24 c11 14 75 83 142 154 l123 128 34 -39 35
-40 25 26 26 25 -97 94 c-53 52 -100 95 -104 97 -4 1 -17 -8 -30 -22z"/>
<path d="M6634 2651 c-44 -20 -74 -68 -74 -118 0 -47 56 -150 112 -206 86 -86
172 -114 238 -80 45 24 80 76 80 122 0 113 -152 273 -281 295 -23 4 -47 0 -75
-13z m154 -113 c113 -88 157 -199 89 -222 -90 -32 -287 199 -224 263 21 21 77
4 135 -41z"/>
<path d="M2690 2443 c-47 -40 -131 -111 -187 -156 -57 -44 -103 -84 -103 -88
0 -4 14 -17 31 -30 l30 -21 29 27 29 28 36 -28 c46 -35 50 -46 29 -86 -16 -33
-16 -33 12 -56 16 -13 31 -23 34 -23 3 0 23 35 44 77 36 74 153 284 183 329
13 20 10 24 -34 62 l-48 40 -85 -75z m18 -142 c-35 -61 -66 -111 -70 -111 -4
0 -21 12 -38 28 l-31 27 98 86 c54 48 99 85 101 84 2 -2 -25 -53 -60 -114z"/>
<path d="M6372 2435 c-23 -10 -39 -28 -53 -60 -18 -40 -19 -52 -9 -98 20 -99
110 -221 192 -260 74 -35 160 -12 193 52 39 76 4 187 -89 283 -87 89 -160 115
-234 83z m125 -94 c48 -35 111 -118 129 -172 26 -74 -14 -115 -82 -83 -62 29
-164 177 -164 237 0 54 56 62 117 18z"/>
<path d="M2878 2375 c-24 -33 -23 -41 12 -55 55 -23 57 -34 15 -98 -21 -31
-74 -106 -118 -165 l-80 -109 29 -24 c16 -13 32 -23 35 -24 3 0 56 77 119 170
62 94 116 170 119 170 4 0 23 -14 44 -31 37 -30 39 -31 53 -13 31 38 -129
-256 -190 -348 l-17 -26 108 -61 107 -60 18 27 c10 15 18 30 18 33 0 3 -31 20
-70 39 -38 19 -70 38 -70 43 0 13 54 107 60 104 91 -49 99 -52 115 -31 8 10
15 21 15 24 0 3 -23 18 -50 33 -28 16 -50 31 -50 33 0 12 72 134 79 134 4 0
36 -18 72 -39 l64 -39 17 27 c10 14 18 29 18 33 0 7 -199 118 -212 118 -4 0
-60 36 -124 80 -63 44 -116 80 -117 80 -1 0 -10 -11 -19 -25z"/>
<path d="M6150 2264 c-47 -31 -91 -59 -98 -63 -10 -5 8 -39 67 -127 43 -65
101 -158 128 -206 l50 -86 31 20 c18 11 32 24 32 29 0 5 -20 40 -45 79 -25 39
-45 72 -45 74 0 2 20 17 45 33 48 30 52 39 32 66 -11 16 -16 15 -60 -13 -26
-16 -49 -30 -51 -30 -5 0 -86 130 -86 138 0 4 32 25 70 46 l70 38 -21 29 c-11
16 -23 29 -27 28 -4 0 -45 -25 -92 -55z"/>
<path d="M5860 2099 c-94 -44 -141 -63 -275 -110 -66 -22 -121 -42 -123 -44
-1 -1 11 -34 27 -73 36 -86 121 -338 121 -357 0 -8 4 -16 9 -19 8 -6 208 61
224 74 11 9 -14 72 -27 66 -80 -34 -139 -56 -140 -54 -12 17 -37 102 -33 112
3 7 26 19 51 26 46 13 56 29 37 59 -7 11 -17 11 -60 -4 -29 -9 -54 -15 -56
-14 -2 2 -15 35 -29 73 -30 80 -32 77 64 102 36 9 86 27 111 40 l47 24 55
-123 c30 -67 67 -152 82 -190 15 -37 29 -67 32 -67 4 0 65 30 71 35 1 1 -38
85 -87 186 -49 101 -87 187 -85 190 2 3 24 12 49 19 36 10 45 16 39 29 -3 9
-9 24 -11 34 -7 23 -18 22 -93 -14z"/>
<path d="M3354 2068 c-51 -39 -78 -84 -95 -158 -11 -48 17 -107 70 -149 44
-35 52 -64 22 -81 -37 -19 -101 26 -101 72 0 23 -14 30 -45 22 -32 -8 -33 -39
-2 -84 32 -48 69 -72 118 -77 53 -5 89 12 107 50 18 37 9 58 -49 113 -43 42
-49 53 -49 88 0 27 10 59 29 91 44 77 92 94 124 44 14 -22 -9 -92 -47 -142
l-33 -44 33 -22 34 -23 20 23 c40 48 70 122 70 172 0 44 -4 54 -39 88 -35 35
-44 39 -88 39 -37 0 -58 -6 -79 -22z"/>
<path d="M3596 1918 c-20 -69 -111 -310 -134 -359 -3 -6 77 -34 81 -28 1 2 18
51 36 109 19 58 55 158 81 222 l47 117 -42 15 -42 14 -27 -90z"/>
<path d="M3724 1933 c-19 -85 -77 -298 -99 -362 -14 -41 -24 -75 -22 -76 1 -1
30 -9 64 -18 134 -36 177 -17 232 103 77 166 80 270 11 322 -20 14 -151 58
-175 58 -2 0 -7 -12 -11 -27z m130 -74 c22 -17 26 -28 26 -69 0 -63 -40 -191
-75 -235 -22 -30 -32 -35 -67 -35 -40 0 -40 0 -34 32 3 17 25 98 48 180 44
161 50 168 102 127z"/>
<path d="M5304 1902 l-100 -27 33 -115 c18 -63 44 -166 57 -228 13 -63 26
-116 29 -118 2 -3 56 8 118 24 108 27 114 30 111 53 -5 47 -7 48 -72 28 -90
-28 -96 -26 -109 25 -17 69 -16 72 42 85 52 11 53 13 49 42 -4 30 -6 30 -41
23 -81 -17 -83 -16 -102 61 -13 52 -15 71 -6 77 6 4 42 13 80 19 62 11 68 14
63 33 -3 12 -6 27 -6 34 0 17 -31 14 -146 -16z"/>
<path d="M3997 1752 c-10 -70 -28 -175 -41 -232 -15 -68 -20 -107 -14 -111 13
-8 227 -43 232 -38 2 2 6 18 9 36 l6 31 -68 7 c-92 9 -94 11 -86 79 8 62 12
64 87 47 35 -8 37 -7 47 20 11 31 9 32 -66 44 -24 4 -43 11 -43 16 0 6 5 41
11 80 13 78 10 77 108 54 35 -9 65 -14 66 -13 1 2 5 18 8 35 6 28 3 33 -16 38
-49 10 -194 35 -208 35 -10 0 -19 -32 -32 -128z"/>
<path d="M4985 1844 c-38 -7 -132 -16 -207 -20 l-138 -7 0 -36 0 -36 -20 33
c-37 60 -125 77 -186 37 -51 -33 -83 -137 -65 -214 12 -56 42 -86 110 -112 72
-26 85 -44 55 -73 -23 -24 -67 -20 -98 9 -14 13 -26 29 -26 35 0 15 -12 12
-39 -9 -24 -18 -24 -20 -7 -45 27 -42 75 -66 129 -66 60 0 101 20 117 59 20
49 6 79 -48 102 -89 40 -97 45 -110 69 -15 29 -10 121 9 163 14 30 53 46 78
30 19 -12 27 -130 12 -174 -9 -25 -7 -28 21 -38 17 -6 35 -11 39 -11 13 0 31
80 32 142 0 62 7 68 73 68 l31 0 7 -77 c3 -42 6 -134 6 -205 l0 -128 46 0 46
0 -6 58 c-5 45 -25 322 -26 355 0 4 25 7 55 7 50 0 55 2 56 23 1 15 4 11 10
-13 9 -39 44 -263 54 -353 l7 -58 36 3 37 3 -4 63 c-3 58 -1 64 15 60 16 -2
32 -28 71 -106 0 -2 22 0 47 3 l45 7 -39 52 c-22 29 -40 56 -40 60 0 4 9 19
20 33 41 53 18 272 -33 308 -25 18 -74 17 -172 -1z m131 -76 c9 -17 18 -66 21
-108 5 -70 4 -79 -16 -99 -13 -13 -32 -21 -44 -19 -20 3 -23 14 -40 118 -9 63
-15 120 -13 127 3 7 21 13 40 13 30 0 38 -5 52 -32z"/>
</g>
</svg>
